<svg width="16" height="16" viewBox="0 0 16 16" fill="none" xmlns="http://www.w3.org/2000/svg">
<path d="M10.5532 4.53948L3.23577 11.8569L2.75728 13.4891L4.35629 13.0268L11.698 5.6851L10.5532 4.53948ZM11.8016 3.29104L12.9464 4.43585L14.0135 3.36876C14.0894 3.29285 14.132 3.1899 14.132 3.08256C14.132 2.97522 14.0894 2.87227 14.0135 2.79636L13.4403 2.22395C13.3644 2.14806 13.2614 2.10543 13.1541 2.10543C13.0467 2.10543 12.9438 2.14806 12.8679 2.22395L11.8024 3.29104H11.8016ZM14.5859 1.07915L15.1583 1.65155C15.5378 2.03112 15.7509 2.54585 15.7509 3.08256C15.7509 3.61927 15.5378 4.134 15.1583 4.51357L5.2064 14.4663L1.78978 15.454C1.65052 15.4942 1.50303 15.4962 1.36271 15.4599C1.22239 15.4236 1.09439 15.3503 0.99207 15.2477C0.889749 15.145 0.81686 15.0168 0.781013 14.8763C0.745166 14.7359 0.747675 14.5884 0.788278 14.4493L1.79869 11.0043L11.7247 1.07834C12.1043 0.698883 12.619 0.485718 13.1557 0.485718C13.6924 0.485718 14.2071 0.698883 14.5867 1.07834L14.5859 1.07915Z" fill="#53B175"/>
</svg>
