<svg width="24" height="25" viewBox="0 0 24 25" fill="none" xmlns="http://www.w3.org/2000/svg">
<path d="M5.00586 2.40161H19.0059C19.7882 2.40161 20.5386 2.71264 21.0918 3.26587C21.645 3.8191 21.9561 4.56942 21.9561 5.35181V7.35181C21.9561 8.21903 21.5821 8.99943 20.9854 9.53931L20.9688 9.55493V20.3167C20.9688 20.8338 20.7632 21.3299 20.3975 21.6956C20.0318 22.0612 19.5357 22.2668 19.0186 22.2668H11.3789V22.2659L11.3691 22.2678C11.2494 22.2904 11.1277 22.302 11.0059 22.302H9.00586C8.88397 22.302 8.76235 22.2904 8.64258 22.2678L8.63281 22.3167L8.64258 22.2668H5.0166C4.49952 22.2668 4.00333 22.0612 3.6377 21.6956C3.27213 21.3299 3.06641 20.8337 3.06641 20.3167V9.47583L3.01367 9.52759C2.71763 9.25696 2.47909 8.92886 2.31445 8.56274C2.14332 8.18206 2.05508 7.76919 2.05566 7.35181V5.35181C2.05566 4.56942 2.36669 3.8191 2.91992 3.26587C3.47315 2.71264 4.22347 2.40161 5.00586 2.40161ZM14.9727 9.55103C14.4324 10.0356 13.7316 10.303 13.0059 10.302H11.0059C10.2507 10.302 9.56021 10.018 9.03906 9.55103L9.00586 9.52075L8.97266 9.55103C8.4324 10.0356 7.73159 10.303 7.00586 10.302H4.96582V20.3665H7.05566V15.3518C7.05566 14.8346 7.26126 14.3386 7.62695 13.9729C7.99265 13.6072 8.48869 13.4016 9.00586 13.4016H11.0059C11.523 13.4016 12.0191 13.6072 12.3848 13.9729C12.7505 14.3386 12.9561 14.8346 12.9561 15.3518V20.3665H19.0693V10.302H17.0059C16.2507 10.302 15.5602 10.018 15.0391 9.55103L15.0059 9.52075L14.9727 9.55103ZM8.95605 20.3665H11.0059V20.3176H11.0557V15.302H8.95605V20.3665ZM16.0059 13.4016H17.0059C17.2578 13.4016 17.4996 13.5018 17.6777 13.6799C17.8559 13.8581 17.9561 14.0999 17.9561 14.3518V17.3518C17.9561 17.6038 17.8559 17.8455 17.6777 18.0237C17.4996 18.2018 17.2578 18.302 17.0059 18.302H16.0059C15.7539 18.302 15.5121 18.2018 15.334 18.0237C15.1558 17.8455 15.0557 17.6038 15.0557 17.3518V14.3518C15.0557 14.0999 15.1558 13.8581 15.334 13.6799C15.5121 13.5018 15.7539 13.4016 16.0059 13.4016ZM5.00586 4.302C4.72738 4.302 4.46058 4.41271 4.26367 4.60962C4.06676 4.80653 3.95605 5.07333 3.95605 5.35181V7.35181C3.95605 7.63028 4.06676 7.89708 4.26367 8.09399C4.46058 8.29091 4.72738 8.40161 5.00586 8.40161H7.00586C7.28434 8.40161 7.55113 8.29091 7.74805 8.09399C7.94496 7.89708 8.05566 7.63028 8.05566 7.35181V4.302H5.00586ZM9.95605 7.35181C9.95605 7.63028 10.0668 7.89708 10.2637 8.09399C10.4606 8.29091 10.7274 8.40161 11.0059 8.40161H13.0059C13.2843 8.40161 13.5511 8.29091 13.748 8.09399C13.945 7.89708 14.0557 7.63028 14.0557 7.35181V4.302H9.95605V7.35181ZM15.9561 7.35181C15.9561 7.63028 16.0668 7.89708 16.2637 8.09399C16.4606 8.29091 16.7274 8.40161 17.0059 8.40161H19.0059C19.2843 8.40161 19.5511 8.29091 19.748 8.09399C19.945 7.89708 20.0557 7.63028 20.0557 7.35181V5.35181C20.0557 5.07333 19.945 4.80653 19.748 4.60962C19.5511 4.41271 19.2843 4.302 19.0059 4.302H15.9561V7.35181Z" fill="#181725" stroke="white" stroke-width="0.1"/>
</svg>
